<svg width="10" height="11" viewBox="0 0 10 11" fill="none" xmlns="http://www.w3.org/2000/svg">
<path d="M5.3198 6.89255C5.2939 6.22176 5.47943 5.52581 5.71444 4.83846C5.73934 4.76564 5.78525 4.73679 5.85186 4.72393C5.99932 4.69539 6.14251 4.65142 6.284 4.60181C6.8934 4.388 7.40438 4.02685 7.84361 3.55852C7.86556 3.53506 7.88695 3.5111 7.90878 3.48752C8.00493 3.38353 8.00625 3.38221 8.10478 3.48018C8.64324 4.01581 9.02577 4.64616 9.23707 5.37597C9.83148 7.42938 8.88189 9.59443 6.97048 10.5514C6.91792 10.5777 6.86392 10.6013 6.80992 10.6248C6.68761 10.6779 6.68887 10.6763 6.59723 10.5709C5.90103 9.7708 5.51072 8.83777 5.3787 7.78965C5.34382 7.51286 5.32018 7.2362 5.3198 6.89255Z" fill="#FEFEFE"/>
<path d="M4.69609 6.86032C4.67232 7.76556 4.54524 8.55383 4.22267 9.30246C4.01952 9.77393 3.72925 10.19 3.40072 10.581C3.31793 10.6795 3.31461 10.6795 3.19876 10.6263C2.19504 10.1656 1.45726 9.43524 0.99194 8.43416C0.683606 7.77077 0.55484 7.06905 0.603135 6.34049C0.676518 5.23303 1.10973 4.28344 1.89066 3.49354C1.89819 3.48595 1.90578 3.47836 1.91362 3.47103C2.004 3.38585 2.00638 3.38378 2.08798 3.47498C2.33184 3.74769 2.60241 3.9896 2.90686 4.193C3.27566 4.43937 3.67537 4.61712 4.1084 4.71157C4.22399 4.73679 4.27975 4.7891 4.31481 4.89854C4.46038 5.35252 4.60383 5.80686 4.65356 6.2836C4.67689 6.50695 4.68693 6.73168 4.69609 6.86032Z" fill="#FEFEFE"/>
<path d="M5.00739 3.98677C4.09173 3.9874 3.35407 3.6292 2.75102 2.97421C2.66515 2.88101 2.66609 2.87599 2.7741 2.81132C3.00428 2.67365 3.2467 2.56145 3.49864 2.46981C3.54888 2.45156 3.60031 2.43632 3.64999 2.41662C3.72814 2.38564 3.73058 2.37592 3.68241 2.30122C3.66504 2.27431 3.64447 2.24947 3.62534 2.2237C3.42137 1.94867 3.21722 1.67383 3.01375 1.39842C2.98202 1.35546 2.94815 1.31281 2.92481 1.26526C2.85883 1.13098 2.90029 0.977565 3.01965 0.895276C3.1365 0.814743 3.27969 0.82666 3.38562 0.930901C3.42727 0.971858 3.46189 1.02034 3.49695 1.06751C3.76194 1.42382 4.02913 1.77857 4.28873 2.13877C4.3507 2.22476 4.41455 2.25198 4.51748 2.23762C4.84212 2.19221 5.16845 2.19146 5.49303 2.23793C5.59771 2.25292 5.65974 2.22075 5.72083 2.13633C5.98746 1.76797 6.26079 1.4045 6.53218 1.0396C6.56085 1.00109 6.58907 0.961133 6.62357 0.928142C6.73358 0.822959 6.88687 0.815684 7.00359 0.906503C7.11498 0.993183 7.14791 1.13644 7.0823 1.26664C7.06085 1.30923 7.03119 1.34806 7.00265 1.38669C6.79912 1.66203 6.5949 1.93688 6.39094 2.2119C6.37181 2.23768 6.35199 2.26302 6.33386 2.28949C6.27026 2.3825 6.27076 2.38476 6.37005 2.42171C6.41515 2.43851 6.46125 2.4525 6.50653 2.46881C6.75873 2.55988 7.00071 2.67303 7.23145 2.80963C7.34435 2.87643 7.34529 2.87969 7.26206 2.97013C6.65079 3.63428 5.90322 3.99448 5.00739 3.98677Z" fill="#FEFEFE"/>
</svg>
