<svg width="10" height="10" viewBox="0 0 10 10" fill="none" xmlns="http://www.w3.org/2000/svg">
<path fill-rule="evenodd" clip-rule="evenodd" d="M3.74401 8.90911C3.96604 8.93871 4.19359 8.95414 4.42522 8.95414C6.89139 8.95414 8.89054 7.21089 8.89054 5.06064C8.89054 2.91027 6.89133 1.16714 4.42522 1.16714C4.25976 1.16714 4.09631 1.17504 3.93568 1.19028C5.15899 1.99837 5.96789 3.3983 5.96789 4.98983C5.96777 6.66309 5.07387 8.12441 3.74401 8.90911ZM5.00312 9.85537C7.68298 9.85537 9.85537 7.68298 9.85537 5.00312C9.85537 2.32327 7.68298 0.150879 5.00312 0.150879C2.32327 0.150879 0.150879 2.32327 0.150879 5.00312C0.150879 7.68298 2.32327 9.85537 5.00312 9.85537Z" fill="white"/>
</svg>
