<svg width="10" height="13" viewBox="0 0 10 13" fill="none" xmlns="http://www.w3.org/2000/svg">
<path d="M4.94578 10.2617C5.88176 10.2716 6.5841 9.86847 7.00427 9.02964C7.52604 7.98792 7.11503 6.71488 6.09463 6.14299C6.07073 6.12963 6.04753 6.1137 6.02194 6.10486C5.92936 6.07293 5.90032 6.0146 5.91506 5.91563C5.93118 5.80788 5.93087 5.69705 5.93037 5.58767C5.92892 5.28918 5.80863 5.03529 5.62774 4.8056C5.61808 4.79337 5.60485 4.7839 5.59331 4.77318C5.58152 4.78961 5.59155 4.80429 5.5987 4.81777C5.74785 5.09983 5.76259 5.40452 5.75356 5.71417C5.74973 5.84375 5.71003 5.96098 5.6532 6.07507C5.5775 6.22723 5.46661 6.31203 5.28924 6.34263C4.2736 6.51762 3.27422 6.76687 2.27514 7.01769C1.57919 7.19243 0.879798 7.35375 0.18197 7.52096C0.155313 7.52736 0.12872 7.53495 0.101625 7.53796C0.0873246 7.53953 0.0630518 7.53645 0.0593513 7.52818C0.05402 7.51645 0.0604175 7.4965 0.067254 7.48277C0.0792963 7.4583 0.0951647 7.43566 0.109904 7.41258C0.654193 6.56247 1.14216 5.68005 1.61206 4.78742C1.66995 4.6774 1.74591 4.59386 1.84764 4.52192C2.6536 3.95235 3.4499 3.37006 4.19846 2.72498C4.81538 2.19336 5.37203 1.60542 5.87204 0.963158C5.89562 0.932864 5.91901 0.902508 5.94347 0.872966C5.94993 0.865189 5.96072 0.854464 5.96825 0.855405C5.99089 0.858227 5.9855 0.877294 5.9828 0.892096C5.97496 0.935185 5.96605 0.978086 5.95784 1.02111C5.83284 1.67341 5.58628 2.28029 5.27444 2.86353C5.15752 3.08217 5.16135 3.08211 5.41173 3.08863C7.4218 3.14094 9.1749 4.47733 9.75186 6.40592C10.3688 8.46823 9.5028 10.6537 7.65888 11.7464C7.37977 11.9118 7.08631 12.0449 6.78017 12.1521C6.69048 12.1835 6.61452 12.1763 6.52885 12.1383C6.1529 11.9717 5.83133 11.726 5.5282 11.4549C5.18763 11.1503 4.88663 10.8101 4.64008 10.4237C4.61944 10.3914 4.59956 10.3586 4.58012 10.3256C4.55503 10.2829 4.54951 10.2571 4.61738 10.2603C4.72645 10.2655 4.83621 10.2617 4.94578 10.2617ZM3.39765 4.9064C3.38849 4.8194 3.3799 4.73235 3.36986 4.64548C3.36736 4.6239 3.36064 4.60277 3.35544 4.58157C3.34534 4.54055 3.32132 4.52832 3.28394 4.54952C3.26023 4.563 3.23715 4.57787 3.21482 4.59355C2.69857 4.95488 2.27357 5.40791 1.89706 5.90898C1.8393 5.98582 1.85121 6.0062 1.95476 6.00877C2.38772 6.01937 2.77371 5.89192 3.10305 5.60698C3.31593 5.42277 3.40856 5.18619 3.39765 4.9064Z" fill="#FEFEFE"/>
</svg>
