<svg width="12" height="12" viewBox="0 0 12 12" fill="none" xmlns="http://www.w3.org/2000/svg">
<path fill-rule="evenodd" clip-rule="evenodd" d="M2.63915 9.29525L4.44168 8.7726L5.99853 11.6192C6.0006 11.6229 6.00587 11.6229 6.00787 11.6192L7.56472 8.7726L9.36725 9.29525C9.37126 9.29644 9.37502 9.29267 9.37383 9.2886L8.85112 7.52176L11.6192 6.00781C11.6229 6.00581 11.6229 6.00047 11.6192 5.99847L8.82829 4.47204L9.37383 2.62806C9.37502 2.62404 9.37126 2.62028 9.36725 2.62141L7.52245 3.15635L6.00787 0.387053C6.00587 0.383352 6.00054 0.383352 5.99853 0.387053L4.48395 3.15635L2.63915 2.62141C2.63514 2.62022 2.63138 2.62398 2.63257 2.62806L3.17811 4.47204L0.387175 5.99847C0.383474 6.00047 0.383474 6.00581 0.387175 6.00781L3.15528 7.52176L2.63257 9.2886C2.63138 9.29267 2.63514 9.29644 2.63915 9.29525ZM4.03788 6.02262L5.31487 6.72101L6.01327 7.998C6.01527 8.0017 6.02061 8.0017 6.02261 7.998L6.72101 6.72101L7.998 6.02262C8.0017 6.02061 8.0017 6.01528 7.998 6.01327L6.72101 5.31488L6.02261 4.03789C6.02061 4.03419 6.01527 4.03419 6.01327 4.03789L5.31487 5.31488L4.03788 6.01327C4.03425 6.01528 4.03425 6.02055 4.03788 6.02262Z" fill="white"/>
</svg>
