<svg width="11" height="8" viewBox="0 0 11 8" fill="none" xmlns="http://www.w3.org/2000/svg">
<path d="M6.75173 7.55449C5.55051 7.55449 4.34928 7.5516 3.14806 7.55687C2.90884 7.55793 2.79958 7.49333 2.79996 7.21366C2.80285 5.11654 2.79833 3.01942 2.79613 0.922229C2.79613 0.892186 2.79526 0.862081 2.79689 0.832163C2.80529 0.676428 2.88633 0.593323 3.04187 0.587867C3.15684 0.583853 3.27206 0.586675 3.38721 0.586612C3.57738 0.586549 3.76799 0.594578 3.95772 0.584793C4.25859 0.569239 4.31717 0.694491 4.31397 0.933268C4.30638 1.49876 4.31152 2.06437 4.31152 2.62998C4.31152 2.75009 4.30983 2.87027 4.31228 2.99031C4.31642 3.19252 4.38591 3.26158 4.58361 3.26428C4.62362 3.26484 4.66376 3.26578 4.70372 3.26359C4.84603 3.25581 4.92318 3.18092 4.92688 3.03572C4.93133 2.86067 4.92838 2.68537 4.92844 2.51019C4.92851 1.99469 4.92844 1.47913 4.92851 0.963625C4.92851 0.923609 4.92769 0.883531 4.92907 0.843515C4.93528 0.671661 5.01675 0.590689 5.19243 0.587302C5.33751 0.58448 5.4827 0.586549 5.62784 0.586549C5.80804 0.586549 5.98823 0.585107 6.16837 0.587114C6.36167 0.589247 6.44082 0.666832 6.44133 0.862144C6.44308 1.54285 6.44201 2.22356 6.44245 2.9042C6.44252 2.9592 6.44026 3.0149 6.4481 3.06903C6.46503 3.18669 6.54055 3.25481 6.66053 3.26265C6.72532 3.26685 6.7908 3.26697 6.85559 3.26277C6.98223 3.25468 7.05686 3.18268 7.07104 3.05598C7.07656 3.00643 7.07486 2.95601 7.07493 2.90602C7.07512 2.25535 7.07505 1.60469 7.07512 0.954029C7.07512 0.914013 7.07443 0.873935 7.07549 0.833919C7.08051 0.64582 7.1628 0.561838 7.35441 0.560207C7.66971 0.55751 7.98506 0.557259 8.30036 0.560332C8.49028 0.562214 8.57288 0.646887 8.57332 0.838623C8.57489 1.52435 8.57388 2.21001 8.5742 2.89573C8.5742 2.95074 8.57182 3.00637 8.5789 3.06062C8.59559 3.1882 8.6701 3.25625 8.79855 3.26308C8.8634 3.26653 8.92888 3.26697 8.99367 3.26258C9.11259 3.25449 9.18704 3.18506 9.20303 3.06621C9.21031 3.01201 9.20824 2.95632 9.20824 2.90131C9.20855 2.26069 9.20843 1.62 9.20849 0.979368C9.20849 0.934335 9.20761 0.889239 9.20912 0.844268C9.21501 0.667396 9.29097 0.588933 9.46878 0.587553C9.79907 0.584981 10.1295 0.584793 10.4598 0.587678C10.6341 0.589184 10.7146 0.672288 10.7222 0.846024C10.7235 0.876005 10.7227 0.906048 10.7227 0.936091C10.7207 3.01822 10.7187 5.10036 10.7166 7.18249C10.7165 7.23254 10.7187 7.28297 10.7134 7.33252C10.6992 7.46668 10.6242 7.5405 10.4906 7.55242C10.4409 7.55687 10.3906 7.55436 10.3405 7.55436C9.14414 7.55449 7.94793 7.55449 6.75173 7.55449Z" fill="#FEFEFE"/>
<path d="M2.29795 5.09857C2.29795 5.79364 2.29802 6.48871 2.29777 7.18378C2.29777 7.23872 2.29921 7.29417 2.29306 7.34861C2.27863 7.47599 2.20971 7.54517 2.08188 7.56405C2.04745 7.56913 2.01188 7.56631 1.9772 7.57014C1.79117 7.59052 1.67702 7.51996 1.5909 7.34227C1.35539 6.85663 1.09936 6.38083 0.848607 5.90259C0.803323 5.81616 0.776981 5.72973 0.777482 5.63138C0.779239 5.27638 0.778361 4.92132 0.775413 4.56626C0.774597 4.46848 0.796424 4.37998 0.84152 4.2933C1.10438 3.78759 1.36712 3.28181 1.62471 2.77346C1.67934 2.66564 1.75348 2.61415 1.87246 2.62023C1.94227 2.62381 2.01289 2.61747 2.08219 2.6245C2.21359 2.6378 2.28905 2.71657 2.30197 2.84847C2.30636 2.89307 2.30429 2.93841 2.30429 2.98339C2.30441 3.68849 2.30435 4.39353 2.30435 5.09863C2.30222 5.09857 2.30009 5.09857 2.29795 5.09857Z" fill="#FEFEFE"/>
</svg>
