<svg width="10" height="12" viewBox="0 0 10 12" fill="none" xmlns="http://www.w3.org/2000/svg">
<path d="M8.44907 9.63778C8.44737 9.69354 8.4098 9.73149 8.38114 9.77376C7.91908 10.455 7.29526 10.9126 6.49953 11.1307C5.96113 11.2782 5.41396 11.381 4.85418 11.3407C3.4404 11.239 2.26915 10.6779 1.45686 9.4796C1.05921 8.89304 0.863463 8.23203 0.811405 7.52768C0.740593 6.5705 0.943369 5.66042 1.28971 4.77556C1.32521 4.68493 1.36247 4.59493 1.40123 4.50568C1.41139 4.48228 1.41578 4.44183 1.45404 4.45255C1.47643 4.45882 1.47122 4.49069 1.47135 4.51245C1.47173 4.56971 1.47053 4.62704 1.47079 4.6843C1.47336 5.36877 1.53382 6.04565 1.73929 6.70309C1.80772 6.92198 1.88894 7.13611 1.98729 7.34347C1.99877 7.36774 2.00981 7.40236 2.04474 7.39113C2.05453 7.388 2.0586 7.3493 2.05597 7.32804C2.02135 7.04335 2.00924 6.75709 2.00284 6.4709C1.97788 5.35686 2.2615 4.35025 3.04871 3.52542C3.26603 3.29774 3.49315 3.07954 3.75036 2.89445C3.95508 2.74712 4.1477 2.58467 4.32143 2.4004C4.65065 2.05123 4.81341 1.63433 4.83518 1.15835C4.8486 0.864437 4.81028 0.575484 4.75477 0.288036C4.74825 0.254355 4.74147 0.220674 4.73696 0.186679C4.73558 0.176331 4.74047 0.156197 4.74423 0.155758C4.75916 0.154002 4.77553 0.156135 4.78983 0.161152C4.79986 0.164727 4.80764 0.175139 4.81605 0.182916C5.24593 0.58345 5.63467 1.01697 5.90569 1.54458C6.1471 2.01461 6.24959 2.51298 6.20944 3.0404C6.19665 3.20862 6.19828 3.21062 6.031 3.26074C5.53545 3.4092 5.18716 3.89484 5.21024 4.43926C5.23169 4.94528 5.57296 5.39054 6.06337 5.52357C6.68173 5.69134 7.31238 5.31264 7.48041 4.67421C7.5511 4.40583 7.52532 4.14052 7.46197 3.87577C7.42597 3.72518 7.37705 3.5786 7.3233 3.43347C7.3122 3.40355 7.27983 3.36416 7.31414 3.34058C7.34268 3.32095 7.37692 3.3557 7.40559 3.37276C8.07413 3.76984 8.60505 4.29951 8.9021 5.02506C9.4208 6.29189 9.28582 7.49845 8.46958 8.60013C7.93821 9.31728 7.20131 9.66895 6.30177 9.65729C6.19333 9.65591 6.08501 9.63966 5.97675 9.629C5.94897 9.62624 5.91347 9.62787 5.90174 9.59758C5.88888 9.56415 5.92325 9.55041 5.94395 9.53335C5.97932 9.50419 6.01752 9.47834 6.0512 9.44742C6.5312 9.00681 6.71334 8.46108 6.56908 7.82986C6.4274 7.20993 6.03546 6.79968 5.41647 6.63121C4.61183 6.41219 3.76378 6.91295 3.53103 7.74042C3.36432 8.33301 3.50117 8.86789 3.89004 9.33133C4.36571 9.89826 4.98596 10.1996 5.72198 10.268C6.43467 10.3342 7.11199 10.1853 7.77087 9.93156C8.00024 9.84325 8.22177 9.73456 8.44687 9.63515L8.44907 9.63778Z" fill="#FEFEFE"/>
</svg>
