<svg width="12" height="10" viewBox="0 0 12 10" fill="none" xmlns="http://www.w3.org/2000/svg">
<path d="M9.85267 4.6243C9.85612 4.68163 9.82106 4.72472 9.79742 4.77176C9.39789 5.56649 8.37442 6.25961 7.39083 6.25754C7.18273 6.25711 6.97487 6.25642 6.76708 6.24431C6.74732 6.24318 6.71307 6.24901 6.70944 6.25968C6.6984 6.29235 6.73032 6.30446 6.75416 6.31167C6.9839 6.38123 7.21647 6.43899 7.45418 6.47493C7.80046 6.52731 8.14542 6.52084 8.48844 6.45053C8.84187 6.37809 9.14356 6.20235 9.42248 5.98019C9.46431 5.94689 9.49479 5.89007 9.56077 5.8932C9.53694 5.94037 9.51442 5.98822 9.48908 6.03451C9.14337 6.6656 8.58911 6.98008 7.8958 7.08326C7.70538 7.11161 7.51345 7.11688 7.32134 7.11882C7.27869 7.11926 7.23598 7.11964 7.19345 7.12252C7.1794 7.12346 7.15701 7.12591 7.1624 7.1483C7.16554 7.16128 7.17777 7.17665 7.18988 7.18204C7.22381 7.19716 7.2595 7.20876 7.29512 7.21968C7.37158 7.24301 7.44885 7.26364 7.52499 7.28779C7.60647 7.31363 7.61054 7.3189 7.57373 7.40063C7.43925 7.69911 7.26539 7.97326 7.05158 8.2212C6.50164 8.85894 5.81247 9.26167 4.98312 9.40329C3.04211 9.73477 1.2816 8.4554 0.931874 6.61022C0.578131 4.74391 1.73614 2.97318 3.58301 2.53358C3.8539 2.4691 4.12924 2.44251 4.40778 2.44326C4.95182 2.44476 5.49623 2.45524 6.03996 2.44113C7.00836 2.41598 7.96253 2.28527 8.89173 2.00083C9.16764 1.91634 9.4337 1.80715 9.68552 1.66465C10.1066 1.42643 10.4429 1.09571 10.7262 0.70841C10.8458 0.54496 10.9564 0.374863 11.0716 0.208151C11.0828 0.191907 11.0931 0.166505 11.1191 0.176226C11.1434 0.185321 11.1377 0.211287 11.137 0.231044C11.1246 0.577951 11.0923 0.923479 11.0245 1.26367C10.892 1.92801 10.6562 2.55772 10.3109 3.1387C9.7808 4.03059 9.0072 4.61859 8.00462 4.89663C7.74658 4.9682 7.47902 4.99021 7.21327 5.00282C6.8192 5.02157 6.424 5.02684 6.03318 4.9517C6.01236 4.94769 5.99091 4.94625 5.96971 4.94487C5.95485 4.94393 5.93754 4.94474 5.93578 4.96349C5.93503 4.9714 5.9445 4.98338 5.95253 4.98821C5.97059 4.99906 5.99041 5.00715 6.00991 5.01536C6.62809 5.27565 7.26715 5.42154 7.9424 5.36315C8.36946 5.32621 8.78618 5.24172 9.18445 5.07834C9.41401 4.98413 9.62149 4.85656 9.79177 4.67304C9.80934 4.65416 9.83317 4.64111 9.85406 4.62531L9.85267 4.6243Z" fill="#FEFEFE"/>
</svg>
