<svg width="11" height="10" viewBox="0 0 11 10" fill="none" xmlns="http://www.w3.org/2000/svg">
<path d="M10.0845 9.27385C10.029 9.24336 9.97409 9.212 9.91908 9.18064C9.89681 9.16797 9.8743 9.15574 9.85216 9.14295C9.7005 9.05501 9.57393 8.93748 9.46417 8.80244C9.31213 8.61547 9.28617 8.41194 9.3948 8.19392C9.42628 8.13083 9.47703 8.08329 9.522 8.03085C10.6949 6.66342 11.0572 5.10757 10.5275 3.38464C9.86112 1.21677 7.70122 -0.237279 5.30185 0.0347399C4.2706 0.151651 3.35055 0.549926 2.59107 1.25942C1.23191 2.52913 0.736358 4.08717 1.11055 5.91498C1.57211 7.66801 2.63942 8.72887 4.31544 9.41723C4.77869 9.57616 5.32844 9.70505 5.81114 9.78314C6.17968 9.84272 6.50671 9.8584 6.87826 9.86104C7.06373 9.86235 7.26004 9.86053 7.4785 9.85915C7.87671 9.86323 8.03257 9.84692 8.30766 9.8219C8.90821 9.76721 9.47903 9.59441 10.0305 9.35451C10.0487 9.3466 10.0666 9.33832 10.0847 9.33042C10.1285 9.31129 10.1209 9.29385 10.0845 9.27385ZM5.22125 4.35468C5.13626 4.89589 4.6865 5.282 4.13901 5.28049C3.67732 5.27924 3.27303 4.99392 3.11792 4.55996C2.96375 4.12851 3.09678 3.64449 3.44977 3.35397C3.47643 3.33202 3.50377 3.31044 3.53294 3.29219C3.59535 3.25312 3.60695 3.25732 3.61548 3.33008C3.63292 3.47872 3.67036 3.62091 3.74036 3.75369C3.99751 4.2414 4.5778 4.45898 5.0975 4.25169C5.25443 4.1891 5.24088 4.22949 5.22125 4.35468ZM6.53029 4.40354C6.52364 4.36973 6.51818 4.33536 6.51618 4.30099C6.51097 4.21299 6.52201 4.20296 6.60405 4.23802C6.84483 4.34094 7.09132 4.35831 7.34246 4.28882C7.76162 4.17285 8.0702 3.80669 8.12057 3.3741C8.12471 3.33848 8.10388 3.28517 8.15369 3.27212C8.19314 3.26177 8.22443 3.30078 8.25561 3.32387C8.62352 3.59639 8.77895 4.08918 8.63607 4.52779C8.48755 4.98351 8.07484 5.28169 7.59415 5.28049C7.07282 5.27918 6.63064 4.9149 6.53029 4.40354Z" fill="#FEFEFE"/>
</svg>
