<svg width="10" height="10" viewBox="0 0 10 10" fill="none" xmlns="http://www.w3.org/2000/svg">
<path d="M5.54948 7.26838C5.15314 7.26838 4.75688 7.26838 4.36055 7.26838C4.32354 7.26838 4.28654 7.26845 4.24959 7.26782C4.2033 7.26707 4.17427 7.25465 4.20726 7.20228C4.22413 7.1755 4.24069 7.14846 4.25743 7.12156C4.58697 6.59245 4.91788 6.06409 5.24484 5.53335C5.29847 5.44635 5.35674 5.3995 5.4665 5.38815C6.11785 5.32079 6.76813 5.24333 7.41873 5.16882C7.4553 5.16461 7.49274 5.16016 7.52737 5.14875C7.60715 5.1224 7.6518 5.06602 7.65024 5.00179C7.64867 4.93832 7.60225 4.87911 7.52517 4.8549C7.47512 4.83916 7.42225 4.83063 7.37 4.82429C6.91384 4.76885 6.45748 4.71466 6.00119 4.66009C5.76806 4.63218 5.81667 4.62039 5.90567 4.47814C6.34283 3.77949 6.78068 3.08123 7.2179 2.38265C7.2487 2.33341 7.27818 2.2833 7.30621 2.23249C7.32942 2.19041 7.34403 2.14475 7.34165 2.09601C7.33575 1.97534 7.23816 1.91808 7.13091 1.97321C7.06399 2.00758 7.01444 2.0634 6.96357 2.11728C6.39438 2.72077 5.82513 3.32414 5.25569 3.92745C5.09431 4.09843 5.11438 4.09397 5.03046 3.88198C4.86532 3.46457 4.70124 3.04673 4.53597 2.62939C4.51659 2.5804 4.49709 2.5306 4.47018 2.48563C4.42389 2.40811 4.34888 2.37123 4.28766 2.38817C4.22482 2.40554 4.17972 2.47623 4.17953 2.56435C4.17947 2.6011 4.18574 2.63804 4.19101 2.67461C4.28202 3.30702 4.37215 3.93956 4.46566 4.57159C4.48304 4.68894 4.46121 4.77763 4.37271 4.8687C3.94559 5.30824 3.52705 5.75607 3.10551 6.20101C3.08368 6.22403 3.06273 6.24792 3.03984 6.26981C2.98063 6.32639 2.97285 6.32626 2.95159 6.24686C2.83688 5.81841 2.7236 5.38959 2.61127 4.96052C2.50966 4.57234 2.40994 4.18367 2.30933 3.79524C2.29071 3.7233 2.27107 3.65223 2.21105 3.6008C2.12029 3.52297 2.01405 3.54812 1.96838 3.65945C1.94537 3.71552 1.95202 3.77354 1.9576 3.83155C1.99673 4.23635 2.03587 4.64109 2.07457 5.04595C2.12174 5.54012 2.16859 6.03436 2.21519 6.5286C2.22955 6.68107 2.2394 6.83398 2.25765 6.98595C2.26593 7.05495 2.25088 7.10575 2.20208 7.15668C1.8987 7.47336 1.59865 7.79323 1.29633 8.11085C1.21837 8.19276 1.21448 8.19263 1.14016 8.10721C0.70187 7.6035 0.399494 7.02679 0.249969 6.37713C-0.0408662 5.11343 0.152376 3.93197 0.889028 2.85374C1.21906 2.3706 1.65171 1.99848 2.1514 1.69429C3.03677 1.15527 3.99551 0.810557 4.99848 0.572282C5.76505 0.390141 6.53808 0.246699 7.32315 0.177142C7.7494 0.139385 8.17728 0.123015 8.60553 0.129788C8.72263 0.13167 8.72451 0.132234 8.75487 0.246762C8.86852 0.675833 8.96316 1.10917 9.03285 1.54759C9.19843 2.58893 9.25582 3.63749 9.22728 4.69057C9.20978 5.33572 9.15597 5.97747 8.97828 6.60229C8.81646 7.17123 8.56922 7.70316 8.2309 8.18555C7.68141 8.96893 6.9223 9.46893 6.00508 9.71724C4.97408 9.99635 3.96503 9.91274 2.98985 9.46812C2.95623 9.45281 2.92318 9.43632 2.8905 9.41907C2.86159 9.40383 2.85864 9.37874 2.87244 9.3524C2.88712 9.32443 2.90474 9.29796 2.92142 9.27105C3.13053 8.93462 3.34203 8.59963 3.54725 8.26081C3.59855 8.17608 3.65952 8.138 3.75887 8.12301C4.50022 8.01131 5.24058 7.8927 5.98124 7.77604C6.25772 7.73252 6.53412 7.68899 6.81035 7.64402C6.86222 7.63555 6.91509 7.62552 6.96376 7.60657C7.04153 7.57622 7.08908 7.50409 7.08337 7.43685C7.07666 7.35826 7.02428 7.31706 6.95761 7.28858C6.89721 7.2628 6.83343 7.26688 6.77014 7.26688C6.36327 7.26682 5.95641 7.26682 5.54954 7.26682C5.54948 7.26707 5.54948 7.26776 5.54948 7.26838Z" fill="#FEFEFE"/>
</svg>
