<svg width="12" height="7" viewBox="0 0 12 7" fill="none" xmlns="http://www.w3.org/2000/svg">
<path fill-rule="evenodd" clip-rule="evenodd" d="M3.20902 6.9043C3.20632 6.9043 3.20444 6.90166 3.20532 6.89909L5.7322 0.449227C5.73276 0.447659 5.73421 0.446655 5.7359 0.446655H8.93508C8.93672 0.446655 8.93822 0.447722 8.93878 0.44929L11.4281 6.89915C11.429 6.90166 11.4271 6.9043 11.4244 6.9043H3.20902ZM0.217751 6.93227C0.215054 6.93227 0.213172 6.92957 0.214113 6.927L2.15845 1.90353C2.15901 1.90202 2.16046 1.90102 2.16209 1.90102H3.79702C3.79972 1.90102 3.8016 1.90372 3.80066 1.90622L1.91848 6.9297C1.91791 6.9312 1.91647 6.93227 1.91484 6.93227H0.217751Z" fill="white"/>
</svg>
