<svg width="12" height="10" viewBox="0 0 12 10" fill="none" xmlns="http://www.w3.org/2000/svg">
<path d="M3.01815 3.6792L5.74242 5.00467L3.01815 6.32713L0.293823 5.00499L3.01815 3.6792Z" fill="white"/>
<path d="M8.98818 3.67908L6.26392 5.00455L8.98818 6.32701L11.7125 5.00486L8.98818 3.67908Z" fill="white"/>
<path d="M8.98818 0.269409L6.26392 1.70333V4.51107L6.28461 4.50079L6.32331 4.48153L8.98743 3.15587L8.98737 3.15581L8.98818 3.15543V0.269409Z" fill="white"/>
<path d="M8.98818 9.7369L6.26392 8.30298V5.49524L6.28461 5.50552L6.32331 5.52478L8.98743 6.85044L8.98737 6.8505L8.98818 6.85088V9.7369Z" fill="white"/>
<path d="M3.01819 0.269409L5.74245 1.70333V4.51107L5.72176 4.50079L5.68306 4.48153L3.01894 3.15587L3.019 3.15581L3.01819 3.15543V0.269409Z" fill="white"/>
<path d="M3.01819 9.7369L5.74245 8.30298V5.49524L5.72176 5.50552L5.68306 5.52478L3.01894 6.85044L3.019 6.8505L3.01819 6.85088V9.7369Z" fill="white"/>
</svg>
