<svg width="12" height="10" viewBox="0 0 12 10" fill="none" xmlns="http://www.w3.org/2000/svg">
<path d="M6.05505 0.0577393C7.2855 0.0772453 8.46716 0.420389 9.49602 1.21663C10.1684 1.73702 10.6777 2.38567 10.9457 3.19897C11.3512 4.42942 11.1481 5.57401 10.4108 6.62934C10.1684 6.97631 9.87448 7.2775 9.54068 7.53703C9.4429 7.61305 9.4212 7.68324 9.45344 7.8046C9.57637 8.26654 9.54413 8.7217 9.35126 9.16143C9.24602 9.4014 9.09643 9.60838 8.87942 9.76129C8.5253 10.0109 8.09855 10.011 7.74575 9.7601C7.497 9.58316 7.34114 9.33743 7.2305 9.05838C7.21174 9.01109 7.21049 8.92661 7.16445 8.92692C7.10016 8.92736 7.10995 9.01479 7.09032 9.06403C6.99059 9.31403 6.84433 9.52753 6.62411 9.68628C6.21066 9.98432 5.666 9.9534 5.28735 9.6117C5.11192 9.4534 4.98554 9.26285 4.90513 9.04113C4.89265 9.00664 4.88161 8.97139 4.86593 8.93833C4.85427 8.91369 4.8325 8.91143 4.82034 8.93727C4.80033 8.97992 4.78465 9.02458 4.76803 9.06873C4.68517 9.28832 4.56393 9.48281 4.39453 9.64657C3.97662 10.0504 3.39972 10.0494 2.98338 9.64143C2.67994 9.34407 2.53555 8.9717 2.49516 8.55737C2.46901 8.28943 2.47722 8.02017 2.56171 7.76107C2.59163 7.66919 2.56591 7.61794 2.49372 7.56218C2.05235 7.22105 1.68462 6.81267 1.39862 6.33293C1.01734 5.69349 0.827861 5.00074 0.85872 4.25656C0.896227 3.35144 1.2326 2.55991 1.81903 1.87463C2.50733 1.0703 3.38347 0.564207 4.39377 0.277951C4.91762 0.129303 5.45388 0.0649521 6.05505 0.0577393ZM5.99773 6.75278C6.40027 6.75447 6.79478 6.6999 7.1795 6.5813C7.73282 6.41076 8.22192 6.13498 8.60941 5.69637C9.26697 4.95213 9.2893 3.97683 8.66617 3.20342C8.46596 2.95492 8.22292 2.75529 7.9494 2.59271C7.45215 2.29717 6.91232 2.14163 6.33698 2.0949C5.60716 2.03557 4.91103 2.15342 4.25585 2.48226C3.77591 2.72317 3.3745 3.05647 3.11628 3.53728C2.81993 4.08904 2.80418 4.65227 3.07671 5.21801C3.29648 5.67423 3.65035 6.00502 4.08168 6.25678C4.67307 6.602 5.31696 6.75002 5.99773 6.75278Z" fill="#FEFEFE"/>
</svg>
