<svg width="10" height="10" viewBox="0 0 10 10" fill="none" xmlns="http://www.w3.org/2000/svg">
<path d="M8.82322 8.50651C8.77762 8.57399 8.70662 8.61213 8.64278 8.65703C7.98114 9.12229 7.24618 9.40485 6.45057 9.53957C6.02225 9.61214 5.59136 9.6356 5.15897 9.61434C4.16052 9.56535 3.22498 9.31071 2.39224 8.73738C1.45745 8.0938 0.873336 7.21277 0.619067 6.10933C0.513885 5.65297 0.479577 5.19003 0.509808 4.72433C0.562305 3.91424 0.767903 3.14585 1.20808 2.45693C1.77752 1.56573 2.57595 0.963802 3.58186 0.637153C4.15757 0.450246 4.74802 0.361309 5.35271 0.389533C6.27865 0.432747 7.11998 0.718502 7.85256 1.29622C8.42796 1.75007 8.81601 2.33763 9.04494 3.02843C9.38263 4.04758 9.31972 5.04032 8.82642 6.0017C8.66385 6.31856 8.42702 6.57108 8.16855 6.80659C7.69463 7.23836 7.15003 7.54186 6.51517 7.65307C5.58314 7.81633 4.74012 7.61807 4.02717 6.97449C3.57483 6.56625 3.31906 6.05075 3.23884 5.44656C3.18779 5.06234 3.21049 4.6825 3.33963 4.31834C3.60613 3.56689 4.15124 3.12101 4.92138 2.95737C5.39994 2.8557 5.8667 2.91039 6.29088 3.17646C6.74184 3.45926 6.9899 3.88087 7.06065 4.39762C7.14771 5.03367 6.68107 5.66031 6.04207 5.80131C5.85316 5.84295 5.66506 5.84672 5.47596 5.80125C5.11155 5.71362 4.81576 5.39695 4.75806 5.02953C4.73598 4.88885 4.75937 4.75105 4.79356 4.61583C4.81532 4.52971 4.87553 4.49609 4.94841 4.51359C5.01822 4.5304 5.06081 4.5913 5.04814 4.67309C5.03804 4.73807 5.03177 4.80236 5.03967 4.86715C5.08326 5.22309 5.38821 5.43696 5.75613 5.37048C5.76528 5.36885 5.77419 5.36609 5.78329 5.36421C6.42397 5.22992 6.4867 4.56816 6.26278 4.19046C6.10366 3.92208 5.85918 3.77224 5.55868 3.71127C4.94923 3.58765 4.44276 3.96912 4.25322 4.41462C4.01526 4.9739 4.11078 5.49134 4.50404 5.94707C5.04224 6.5707 5.9621 6.72092 6.69016 6.3106C7.30953 5.96156 7.68572 5.43339 7.77742 4.72866C7.8688 4.02644 7.68698 3.402 7.20723 2.85903C6.7759 2.37087 6.24052 2.09321 5.61243 1.99292C4.05784 1.74467 2.75251 2.54373 2.19272 3.91292C1.96154 4.47841 1.89129 5.06886 1.95727 5.67662C2.058 6.60451 2.43721 7.39842 3.10844 8.04601C3.69908 8.61589 4.40293 8.97697 5.21171 9.12311C6.42874 9.34307 7.57672 9.12568 8.66786 8.56289C8.71654 8.5378 8.76069 8.49866 8.82147 8.50469L8.82322 8.50651Z" fill="#FEFEFE"/>
</svg>
