<svg width="12" height="10" viewBox="0 0 12 10" fill="none" xmlns="http://www.w3.org/2000/svg">
<path fill-rule="evenodd" clip-rule="evenodd" d="M8.88819 4.77988C8.88756 4.77906 8.88731 4.778 8.8875 4.77699L9.5625 0.840905C9.56281 0.839086 9.56438 0.837769 9.5662 0.837769H9.77982C9.78145 0.837769 9.7829 0.838835 9.7834 0.840403L11.3042 5.65552C11.3047 5.65702 11.3041 5.65865 11.3029 5.65966L10.1816 6.53511C10.1799 6.53643 10.1775 6.53605 10.1763 6.53436L8.88819 4.77988ZM0.701782 7.38924C0.701782 7.39087 0.702848 7.39231 0.704354 7.39281L3.01579 8.1486C3.01692 8.14897 3.01818 8.14878 3.01912 8.14809L8.18566 4.58124C8.18653 4.58061 8.1871 4.57974 8.18722 4.57867L8.7413 0.861101C8.74167 0.858843 8.73985 0.856773 8.7376 0.856773H4.16132C4.16019 0.856773 4.15912 0.857275 4.15844 0.858153L0.70266 5.027C0.702096 5.02769 0.701782 5.0285 0.701782 5.02944V7.38924ZM3.97899 8.34115L6.50418 9.16831C6.50531 9.16868 6.50657 9.16849 6.50757 9.1678L9.51395 7.01129C9.51565 7.01009 9.51602 7.00784 9.51489 7.00614L8.38787 5.32906C8.38667 5.3273 8.38435 5.32686 8.3826 5.32805L3.97899 8.34115Z" fill="white"/>
</svg>
