<svg width="12" height="10" viewBox="0 0 12 10" fill="none" xmlns="http://www.w3.org/2000/svg">
<path fill-rule="evenodd" clip-rule="evenodd" d="M0.78082 5.00213C0.77944 4.99975 0.77944 4.9968 0.78082 4.99442L3.40774 0.506264C3.40912 0.503943 3.41163 0.502563 3.41427 0.502563H8.62088C8.62364 0.502563 8.62609 0.503943 8.62753 0.506389L11.2256 4.99454C11.2269 4.99686 11.2269 4.99987 11.2256 5.0022L8.62753 9.48539C8.62615 9.48772 8.62364 9.48922 8.62088 9.48922H3.41427C3.41151 9.48922 3.40906 9.48784 3.40774 9.48552L0.78082 5.00213ZM8.42338 4.99574C8.42338 6.33193 7.34019 7.41512 6.004 7.41512C4.6678 7.41512 3.58461 6.33193 3.58461 4.99574C3.58461 3.65954 4.6678 2.57635 6.004 2.57635C7.34019 2.57635 8.42338 3.65954 8.42338 4.99574Z" fill="white"/>
</svg>
