<svg width="8" height="12" viewBox="0 0 8 12" fill="none" xmlns="http://www.w3.org/2000/svg">
<path d="M4.03643 11.2232C2.20286 11.2021 0.789203 9.96355 0.437403 8.35044C0.278344 7.62106 0.347525 6.90825 0.613899 6.20916C1.02171 5.13896 1.55929 4.13606 2.16749 3.16941C2.69936 2.32413 3.2407 1.4848 3.7774 0.64253C3.83918 0.545564 3.89832 0.446842 3.95809 0.348559C3.98914 0.297504 4.01906 0.298006 4.04979 0.348308C4.05794 0.361668 4.06629 0.375027 4.07438 0.388387C4.6489 1.33666 5.27479 2.25238 5.85765 3.19532C6.38619 4.05032 6.87692 4.92509 7.25318 5.85981C7.40164 6.22854 7.5516 6.5964 7.60893 6.99405C7.76711 8.09034 7.5035 9.07311 6.79174 9.92115C6.13042 10.709 5.27278 11.1304 4.24692 11.2086C4.16357 11.2149 4.08015 11.2202 4.03643 11.2232ZM3.80217 10.0724C4.17762 10.0742 4.53242 9.99384 4.85537 9.80537C5.48716 9.43664 5.85006 8.8958 5.88041 8.15231C5.88267 8.09718 5.90444 8.0031 5.86135 7.99375C5.7921 7.97876 5.7874 8.07504 5.75886 8.12427C5.39496 8.75279 4.85111 9.1024 4.12713 9.13106C3.00104 9.17559 2.11223 8.25554 2.13732 7.18058C2.13832 7.13874 2.14045 7.09691 2.13958 7.0552C2.13926 7.04134 2.13506 7.02121 2.12553 7.01518C2.10182 7.00019 2.08852 7.02284 2.07629 7.03852C2.06023 7.05909 2.04506 7.08054 2.03163 7.10293C1.65086 7.73917 1.61523 8.39259 1.98522 9.03805C2.38318 9.73242 3.01359 10.0497 3.80217 10.0724Z" fill="#FEFEFE"/>
</svg>
