<svg width="77" height="68" viewBox="0 0 77 68" fill="#FFFFFF" xmlns="http://www.w3.org/2000/svg">
<path d="M87.9574 44.1258C85.6545 42.9228 83.1195 42.7129 80.6199 42.4364C72.0491 41.4857 63.4379 41.2445 54.8238 41.1092C54.2829 41.1002 54.0165 40.973 53.8227 40.4129C52.3806 36.275 48.8829 33.752 44.6828 33.7671C40.5119 33.7823 37.0202 36.3063 35.6094 40.3786C35.4258 40.9084 35.2058 41.1072 34.6336 41.1113C28.1151 41.1624 21.6047 41.4194 15.1024 41.8823C11.2676 42.1558 7.42369 42.4384 3.65953 43.3225C2.83381 43.5168 2.04166 43.8331 1.3092 44.2611C1.51104 29.2609 7.25415 17.1623 19.247 8.30229C33.6648 -2.34909 53.0941 -2.56406 67.6663 6.57954C83.1992 16.3246 88.5094 32.5924 87.9574 44.1258Z" fill="white" fill-opacity="0.12"/>
<path d="M28.2367 45.8486C30.3348 45.8486 32.4338 45.8668 34.5329 45.8365C35.099 45.8284 35.4098 45.9313 35.6429 46.5328C37.1678 50.5425 40.6796 52.9919 44.7687 52.9737C48.8911 52.9546 52.2133 50.5375 53.7704 46.3976C53.9258 45.9838 54.1226 45.8213 54.5777 45.8365C58.9928 45.9929 63.4109 46.0888 67.8239 46.2816C71.797 46.4551 75.769 46.6963 79.7229 47.1455C82.0833 47.4139 84.4427 47.6793 86.7295 48.3888C87.4672 48.6179 87.6811 48.9843 87.5762 49.7513C85.2581 66.568 72.2723 81.0848 55.7544 85.2932C32.561 91.2002 9.40486 77.8522 2.86148 54.7984C2.35691 53.0222 2.02893 51.2076 1.71004 49.39C1.60912 48.8258 1.91187 48.6613 2.30846 48.5089C3.65973 47.9861 5.08163 47.7449 6.50353 47.5401C10.1002 47.0243 13.718 46.7155 17.3469 46.5308C20.9758 46.3461 24.6048 46.1584 28.2337 45.9727L28.2367 45.8486ZM82.1358 52.2461C81.06 52.1048 80.0418 51.9433 79.0175 51.8424C72.1229 51.1672 65.2032 50.9412 58.2844 50.6929C57.4771 50.6646 57.0138 50.8947 56.5385 51.578C50.6652 60.0202 38.3929 59.888 32.6922 51.3348C32.3743 50.8584 32.0574 50.6717 31.4882 50.6929C23.7581 50.9835 16.0219 51.1369 8.33616 52.1583C7.42792 52.2794 7.2826 52.5115 7.5147 53.3522C9.11825 59.1492 11.7844 64.3931 15.8534 68.8277C25.4282 79.2591 37.3191 83.4776 51.2748 81.2705C60.9001 79.7475 68.7655 74.8952 74.8678 67.2735C78.416 62.8389 80.8088 57.8301 82.1358 52.2461Z" fill="white" fill-opacity="0.12"/>
<path d="M51.4716 43.3891C51.4964 44.2961 51.3384 45.1987 51.0071 46.0433C50.6758 46.888 50.178 47.6573 49.5432 48.3054C48.9084 48.9536 48.1496 49.4674 47.3121 49.8162C46.4746 50.165 45.5755 50.3417 44.6683 50.3357C43.7611 50.3298 42.8644 50.1413 42.0315 49.7815C41.1987 49.4217 40.4468 48.898 39.8206 48.2415C39.1943 47.5851 38.7066 46.8093 38.3864 45.9604C38.0663 45.1115 37.9202 44.2068 37.9569 43.3003C37.9771 39.6055 41.0338 36.599 44.7566 36.6132C48.4552 36.6263 51.4796 39.6762 51.4716 43.3891Z" fill="white" fill-opacity="0.12"/>
</svg>
